<svg xmlns="http://www.w3.org/2000/svg" width="1800" height="600"><path d="M1010,258L1114,235L1094,132Z" fill="#1d1d1b" stroke="#1d1d1b" stroke-width="1.51"/><path d="M1114,235L1171,249L1094,132Z" fill="#1c1c1a" stroke="#1c1c1a" stroke-width="1.51"/><path d="M1035,406L1171,249L1114,235Z" fill="#161616" stroke="#161616" stroke-width="1.51"/><path d="M1094,132L917,120L1010,258Z" fill="#21211f" stroke="#21211f" stroke-width="1.51"/><path d="M1094,132L1042,-2L917,120Z" fill="#21211f" stroke="#21211f" stroke-width="1.51"/><path d="M1171,249L1159,57L1094,132Z" fill="#1f1f1d" stroke="#1f1f1d" stroke-width="1.51"/><path d="M1159,57L1042,-2L1094,132Z" fill="#1e1e1d" stroke="#1e1e1d" stroke-width="1.51"/><path d="M1010,258L1035,406L1114,235Z" fill="#181816" stroke="#181816" stroke-width="1.51"/><path d="M938,395L1035,406L1010,258Z" fill="#161615" stroke="#161615" stroke-width="1.51"/><path d="M1042,-2L1004,-23L917,120Z" fill="#20201e" stroke="#20201e" stroke-width="1.51"/><path d="M1107,-112L1004,-23L1042,-2Z" fill="#1b1b1a" stroke="#1b1b1a" stroke-width="1.51"/><path d="M853,313L938,395L1010,258Z" fill="#191918" stroke="#191918" stroke-width="1.51"/><path d="M917,120L853,313L1010,258Z" fill="#1f1f1d" stroke="#1f1f1d" stroke-width="1.51"/><path d="M917,120L816,279L853,313Z" fill="#21201f" stroke="#21201f" stroke-width="1.51"/><path d="M800,448L948,466L938,395Z" fill="#131313" stroke="#131313" stroke-width="1.51"/><path d="M783,77L816,279L917,120Z" fill="#262624" stroke="#262624" stroke-width="1.51"/><path d="M1035,406L1238,414L1171,249Z" fill="#111110" stroke="#111110" stroke-width="1.51"/><path d="M948,466L1038,452L1035,406Z" fill="#0f0f0e" stroke="#0f0f0e" stroke-width="1.51"/><path d="M1171,249L1369,117L1159,57Z" fill="#1c1c1b" stroke="#1c1c1b" stroke-width="1.51"/><path d="M1238,414L1311,266L1171,249Z" fill="#121210" stroke="#121210" stroke-width="1.51"/><path d="M1159,57L1107,-112L1042,-2Z" fill="#1b1b1a" stroke="#1b1b1a" stroke-width="1.51"/><path d="M1339,10L1218,-39L1159,57Z" fill="#191817" stroke="#191817" stroke-width="1.51"/><path d="M1004,-23L814,30L917,120Z" fill="#222220" stroke="#222220" stroke-width="1.51"/><path d="M1038,452L1238,414L1035,406Z" fill="#0d0d0c" stroke="#0d0d0c" stroke-width="1.51"/><path d="M938,395L948,466L1035,406Z" fill="#121211" stroke="#121211" stroke-width="1.51"/><path d="M800,448L938,395L853,313Z" fill="#181816" stroke="#181816" stroke-width="1.51"/><path d="M814,30L783,77L917,120Z" fill="#262524" stroke="#262524" stroke-width="1.51"/><path d="M1218,-39L1107,-112L1159,57Z" fill="#191918" stroke="#191918" stroke-width="1.51"/><path d="M789,-122L741,2L814,30Z" fill="#232321" stroke="#232321" stroke-width="1.51"/><path d="M1311,266L1369,117L1171,249Z" fill="#171716" stroke="#171716" stroke-width="1.51"/><path d="M1238,414L1379,409L1311,266Z" fill="#0e0e0d" stroke="#0e0e0d" stroke-width="1.51"/><path d="M1464,220L1439,124L1369,117Z" fill="#212120" stroke="#212120" stroke-width="1.51"/><path d="M1038,452L1246,460L1238,414Z" fill="#080807" stroke="#080807" stroke-width="1.51"/><path d="M1129,622L1246,460L1038,452Z" fill="#0e0f0e" stroke="#0e0f0e" stroke-width="1.51"/><path d="M816,279L763,367L853,313Z" fill="#1d1d1b" stroke="#1d1d1b" stroke-width="1.51"/><path d="M697,281L763,367L816,279Z" fill="#1f1f1d" stroke="#1f1f1d" stroke-width="1.51"/><path d="M1369,117L1339,10L1159,57Z" fill="#1a1a19" stroke="#1a1a19" stroke-width="1.51"/><path d="M1218,-39L1186,-186L1107,-112Z" fill="#161514" stroke="#161514" stroke-width="1.51"/><path d="M763,367L800,448L853,313Z" fill="#1a1a18" stroke="#1a1a18" stroke-width="1.51"/><path d="M783,77L697,281L816,279Z" fill="#252522" stroke="#252522" stroke-width="1.51"/><path d="M763,367L749,507L800,448Z" fill="#171716" stroke="#171716" stroke-width="1.51"/><path d="M814,30L741,2L783,77Z" fill="#262523" stroke="#262523" stroke-width="1.51"/><path d="M783,77L699,78L697,281Z" fill="#2a2a27" stroke="#2a2a27" stroke-width="1.51"/><path d="M789,-122L814,30L1004,-23Z" fill="#20201f" stroke="#20201f" stroke-width="1.51"/><path d="M741,2L699,78L783,77Z" fill="#282725" stroke="#282725" stroke-width="1.51"/><path d="M1246,460L1323,459L1238,414Z" fill="#030303" stroke="#030303" stroke-width="1.51"/><path d="M1182,620L1323,459L1246,460Z" fill="#0a0a0a" stroke="#0a0a0a" stroke-width="1.51"/><path d="M948,466L968,570L1038,452Z" fill="#111211" stroke="#111211" stroke-width="1.51"/><path d="M800,448L968,570L948,466Z" fill="#141413" stroke="#141413" stroke-width="1.51"/><path d="M1107,-112L1003,-195L1004,-23Z" fill="#1a1918" stroke="#1a1918" stroke-width="1.51"/><path d="M1186,-186L1003,-195L1107,-112Z" fill="#161514" stroke="#161514" stroke-width="1.51"/><path d="M1323,459L1379,409L1238,414Z" fill="#070807" stroke="#070807" stroke-width="1.51"/><path d="M1464,220L1369,117L1311,266Z" fill="#1c1c1b" stroke="#1c1c1b" stroke-width="1.51"/><path d="M1369,117L1463,36L1339,10Z" fill="#1e1e1d" stroke="#1e1e1d" stroke-width="1.51"/><path d="M1368,-127L1186,-186L1218,-39Z" fill="#131212" stroke="#131212" stroke-width="1.51"/><path d="M1368,-127L1218,-39L1339,10Z" fill="#171616" stroke="#171616" stroke-width="1.51"/><path d="M556,-12L569,76L699,78Z" fill="#2b2b28" stroke="#2b2b28" stroke-width="1.51"/><path d="M1003,-195L789,-122L1004,-23Z" fill="#1c1b1a" stroke="#1c1b1a" stroke-width="1.51"/><path d="M1379,409L1464,220L1311,266Z" fill="#161716" stroke="#161716" stroke-width="1.51"/><path d="M789,-122L732,-91L741,2Z" fill="#232220" stroke="#232220" stroke-width="1.51"/><path d="M697,281L600,345L763,367Z" fill="#20201e" stroke="#20201e" stroke-width="1.51"/><path d="M699,78L633,286L697,281Z" fill="#272725" stroke="#272725" stroke-width="1.51"/><path d="M600,345L633,286L513,195Z" fill="#262624" stroke="#262624" stroke-width="1.51"/><path d="M800,448L749,507L968,570Z" fill="#171816" stroke="#171816" stroke-width="1.51"/><path d="M600,345L749,507L763,367Z" fill="#1b1b19" stroke="#1b1b19" stroke-width="1.51"/><path d="M968,570L1129,622L1038,452Z" fill="#161616" stroke="#161616" stroke-width="1.51"/><path d="M1099,719L1129,622L968,570Z" fill="#1e1f1e" stroke="#1e1f1e" stroke-width="1.51"/><path d="M1564,-36L1463,36L1642,114Z" fill="#252524" stroke="#252524" stroke-width="1.51"/><path d="M1439,124L1463,36L1369,117Z" fill="#212120" stroke="#212120" stroke-width="1.51"/><path d="M1549,375L1521,331L1379,409Z" fill="#171716" stroke="#171716" stroke-width="1.51"/><path d="M1129,622L1182,620L1246,460Z" fill="#141414" stroke="#141414" stroke-width="1.51"/><path d="M1463,36L1368,-127L1339,10Z" fill="#1b1b1a" stroke="#1b1b1a" stroke-width="1.51"/><path d="M633,286L600,345L697,281Z" fill="#222221" stroke="#222221" stroke-width="1.51"/><path d="M569,76L633,286L699,78Z" fill="#2d2d2a" stroke="#2d2d2a" stroke-width="1.51"/><path d="M1379,409L1521,331L1464,220Z" fill="#181818" stroke="#181818" stroke-width="1.51"/><path d="M1642,114L1463,36L1439,124Z" fill="#252524" stroke="#252524" stroke-width="1.51"/><path d="M1549,375L1379,409L1499,521Z" fill="#121212" stroke="#121212" stroke-width="1.51"/><path d="M556,-12L699,78L741,2Z" fill="#292926" stroke="#292926" stroke-width="1.51"/><path d="M749,507L853,666L968,570Z" fill="#1e1e1d" stroke="#1e1e1d" stroke-width="1.51"/><path d="M1129,622L1099,719L1182,620Z" fill="#1e1f1e" stroke="#1e1f1e" stroke-width="1.51"/><path d="M748,625L853,666L749,507Z" fill="#222221" stroke="#222221" stroke-width="1.51"/><path d="M853,666L939,698L968,570Z" fill="#232422" stroke="#232422" stroke-width="1.51"/><path d="M550,628L748,625L749,507Z" fill="#242423" stroke="#242423" stroke-width="1.51"/><path d="M939,698L1099,719L968,570Z" fill="#232322" stroke="#232322" stroke-width="1.51"/><path d="M1435,586L1379,409L1323,459Z" fill="#0b0b0b" stroke="#0b0b0b" stroke-width="1.51"/><path d="M1564,-36L1509,-110L1463,36Z" fill="#20201f" stroke="#20201f" stroke-width="1.51"/><path d="M1435,586L1323,459L1383,649Z" fill="#161616" stroke="#161616" stroke-width="1.51"/><path d="M513,163L513,195L633,286Z" fill="#2a2a28" stroke="#2a2a28" stroke-width="1.51"/><path d="M732,-91L556,-12L741,2Z" fill="#262524" stroke="#262524" stroke-width="1.51"/><path d="M539,-133L556,-12L732,-91Z" fill="#262624" stroke="#262624" stroke-width="1.51"/><path d="M600,345L561,455L749,507Z" fill="#1a1a1a" stroke="#1a1a1a" stroke-width="1.51"/><path d="M513,163L633,286L569,76Z" fill="#2c2c2a" stroke="#2c2c2a" stroke-width="1.51"/><path d="M415,-6L513,163L569,76Z" fill="#2e2e2b" stroke="#2e2e2b" stroke-width="1.51"/><path d="M939,698L691,743L1099,719Z" fill="#2b2c2a" stroke="#2b2c2a" stroke-width="1.51"/><path d="M853,666L824,693L939,698Z" fill="#292928" stroke="#292928" stroke-width="1.51"/><path d="M748,625L824,693L853,666Z" fill="#282827" stroke="#282827" stroke-width="1.51"/><path d="M1383,649L1323,459L1182,620Z" fill="#131313" stroke="#131313" stroke-width="1.51"/><path d="M1463,36L1509,-110L1368,-127Z" fill="#1c1c1b" stroke="#1c1c1b" stroke-width="1.51"/><path d="M1368,-127L1577,-128L1186,-186Z" fill="#161515" stroke="#161515" stroke-width="1.51"/><path d="M1439,124L1464,220L1642,114Z" fill="#252524" stroke="#252524" stroke-width="1.51"/><path d="M427,330L561,455L600,345Z" fill="#21211f" stroke="#21211f" stroke-width="1.51"/><path d="M1435,586L1499,521L1379,409Z" fill="#121212" stroke="#121212" stroke-width="1.51"/><path d="M1639,237L1464,220L1521,331Z" fill="#20201f" stroke="#20201f" stroke-width="1.51"/><path d="M1435,586L1565,562L1499,521Z" fill="#1a1b1a" stroke="#1a1b1a" stroke-width="1.51"/><path d="M1270,737L1383,649L1182,620Z" fill="#1c1c1c" stroke="#1c1c1c" stroke-width="1.51"/><path d="M1383,785L1270,737L1099,719Z" fill="#252525" stroke="#252525" stroke-width="1.51"/><path d="M1099,719L1270,737L1182,620Z" fill="#212121" stroke="#212121" stroke-width="1.51"/><path d="M1549,375L1639,237L1521,331Z" fill="#1e1e1d" stroke="#1e1e1d" stroke-width="1.51"/><path d="M1689,320L1639,237L1549,375Z" fill="#212120" stroke="#212120" stroke-width="1.51"/><path d="M1639,237L1642,114L1464,220Z" fill="#262625" stroke="#262625" stroke-width="1.51"/><path d="M789,-122L539,-133L732,-91Z" fill="#232220" stroke="#232220" stroke-width="1.51"/><path d="M556,-12L415,-6L569,76Z" fill="#2c2c2a" stroke="#2c2c2a" stroke-width="1.51"/><path d="M438,-195L539,-133L789,-122Z" fill="#242322" stroke="#242322" stroke-width="1.51"/><path d="M1564,-36L1577,-128L1509,-110Z" fill="#20201f" stroke="#20201f" stroke-width="1.51"/><path d="M1509,-110L1577,-128L1368,-127Z" fill="#1c1c1b" stroke="#1c1c1b" stroke-width="1.51"/><path d="M1741,-110L1577,-128L1564,-36Z" fill="#232322" stroke="#232322" stroke-width="1.51"/><path d="M1499,521L1646,436L1549,375Z" fill="#161616" stroke="#161616" stroke-width="1.51"/><path d="M1428,734L1565,562L1435,586Z" fill="#202120" stroke="#202120" stroke-width="1.51"/><path d="M1428,734L1435,586L1383,649Z" fill="#212121" stroke="#212121" stroke-width="1.51"/><path d="M1642,114L1746,-39L1564,-36Z" fill="#292827" stroke="#292827" stroke-width="1.51"/><path d="M1639,237L1687,188L1642,114Z" fill="#2b2b29" stroke="#2b2b29" stroke-width="1.51"/><path d="M1689,320L1687,188L1639,237Z" fill="#262725" stroke="#262725" stroke-width="1.51"/><path d="M513,195L427,330L600,345Z" fill="#272725" stroke="#272725" stroke-width="1.51"/><path d="M329,245L427,330L513,195Z" fill="#272725" stroke="#272725" stroke-width="1.51"/><path d="M329,245L513,195L513,163Z" fill="#2b2b29" stroke="#2b2b29" stroke-width="1.51"/><path d="M1687,188L1688,156L1642,114Z" fill="#2d2d2c" stroke="#2d2d2c" stroke-width="1.51"/><path d="M561,455L550,628L749,507Z" fill="#1f1f1e" stroke="#1f1f1e" stroke-width="1.51"/><path d="M748,625L691,743L824,693Z" fill="#2c2d2b" stroke="#2c2d2b" stroke-width="1.51"/><path d="M427,330L484,492L561,455Z" fill="#1e1e1c" stroke="#1e1e1c" stroke-width="1.51"/><path d="M1565,562L1646,436L1499,521Z" fill="#191919" stroke="#191919" stroke-width="1.51"/><path d="M1646,436L1689,320L1549,375Z" fill="#1d1d1c" stroke="#1d1d1c" stroke-width="1.51"/><path d="M1801,12L1642,114L1688,156Z" fill="#2f2f2d" stroke="#2f2f2d" stroke-width="1.51"/><path d="M600,700L691,743L748,625Z" fill="#2f2f2e" stroke="#2f2f2e" stroke-width="1.51"/><path d="M824,693L691,743L939,698Z" fill="#2d2e2c" stroke="#2d2e2c" stroke-width="1.51"/><path d="M1383,785L1428,734L1383,649Z" fill="#272827" stroke="#272827" stroke-width="1.51"/><path d="M510,593L550,628L561,455Z" fill="#252523" stroke="#252523" stroke-width="1.51"/><path d="M539,-133L415,-6L556,-12Z" fill="#292927" stroke="#292927" stroke-width="1.51"/><path d="M484,492L510,593L561,455Z" fill="#21211f" stroke="#21211f" stroke-width="1.51"/><path d="M326,530L510,593L484,492Z" fill="#222220" stroke="#222220" stroke-width="1.51"/><path d="M426,700L600,700L550,628Z" fill="#323230" stroke="#323230" stroke-width="1.51"/><path d="M550,628L600,700L748,625Z" fill="#2c2c2a" stroke="#2c2c2a" stroke-width="1.51"/><path d="M1270,737L1383,785L1383,649Z" fill="#242524" stroke="#242524" stroke-width="1.51"/><path d="M691,743L1383,785L1099,719Z" fill="#2a2b2a" stroke="#2a2b2a" stroke-width="1.51"/><path d="M427,330L325,385L484,492Z" fill="#1e1e1c" stroke="#1e1e1c" stroke-width="1.51"/><path d="M299,136L329,245L513,163Z" fill="#2b2b28" stroke="#2b2b28" stroke-width="1.51"/><path d="M539,-133L351,-104L415,-6Z" fill="#272725" stroke="#272725" stroke-width="1.51"/><path d="M415,-6L299,136L513,163Z" fill="#2d2d2a" stroke="#2d2d2a" stroke-width="1.51"/><path d="M1003,-195L438,-195L789,-122Z" fill="#1f1e1d" stroke="#1f1e1d" stroke-width="1.51"/><path d="M1801,12L1688,156L1872,157Z" fill="#333331" stroke="#333331" stroke-width="1.51"/><path d="M1801,12L1746,-39L1642,114Z" fill="#2d2d2b" stroke="#2d2d2b" stroke-width="1.51"/><path d="M1872,157L1688,156L1687,188Z" fill="#2f302e" stroke="#2f302e" stroke-width="1.51"/><path d="M1646,436L1745,465L1689,320Z" fill="#1e1e1d" stroke="#1e1e1d" stroke-width="1.51"/><path d="M1688,618L1745,465L1646,436Z" fill="#1e1e1e" stroke="#1e1e1e" stroke-width="1.51"/><path d="M1688,618L1646,436L1565,562Z" fill="#1f1f1f" stroke="#1f1f1f" stroke-width="1.51"/><path d="M1688,618L1565,562L1584,770Z" fill="#292a29" stroke="#292a29" stroke-width="1.51"/><path d="M329,245L325,385L427,330Z" fill="#222220" stroke="#222220" stroke-width="1.51"/><path d="M510,593L426,700L550,628Z" fill="#2d2e2c" stroke="#2d2e2c" stroke-width="1.51"/><path d="M302,24L299,136L415,-6Z" fill="#2b2a28" stroke="#2b2a28" stroke-width="1.51"/><path d="M329,245L243,265L325,385Z" fill="#222221" stroke="#222221" stroke-width="1.51"/><path d="M1746,-39L1741,-110L1564,-36Z" fill="#272726" stroke="#272726" stroke-width="1.51"/><path d="M1577,-128L1884,-166L1186,-186Z" fill="#1e1d1c" stroke="#1e1d1c" stroke-width="1.51"/><path d="M438,-195L351,-104L539,-133Z" fill="#252422" stroke="#252422" stroke-width="1.51"/><path d="M1584,770L1565,562L1428,734Z" fill="#292a29" stroke="#292a29" stroke-width="1.51"/><path d="M351,-104L302,24L415,-6Z" fill="#282725" stroke="#282725" stroke-width="1.51"/><path d="M1746,-39L1884,-166L1741,-110Z" fill="#2b2b2a" stroke="#2b2b2a" stroke-width="1.51"/><path d="M1852,236L1687,188L1689,320Z" fill="#2a2a29" stroke="#2a2a29" stroke-width="1.51"/><path d="M1383,785L1584,770L1428,734Z" fill="#2e302e" stroke="#2e302e" stroke-width="1.51"/><path d="M1745,465L1809,435L1689,320Z" fill="#202120" stroke="#202120" stroke-width="1.51"/><path d="M1873,560L1809,435L1745,465Z" fill="#212221" stroke="#212221" stroke-width="1.51"/><path d="M247,458L326,530L325,385Z" fill="#191918" stroke="#191918" stroke-width="1.51"/><path d="M325,385L326,530L484,492Z" fill="#191918" stroke="#191918" stroke-width="1.51"/><path d="M1863,403L1852,236L1689,320Z" fill="#282928" stroke="#282928" stroke-width="1.51"/><path d="M355,648L426,700L510,593Z" fill="#2d2d2c" stroke="#2d2d2c" stroke-width="1.51"/><path d="M600,700L426,700L691,743Z" fill="#343533" stroke="#343533" stroke-width="1.51"/><path d="M299,136L243,265L329,245Z" fill="#272725" stroke="#272725" stroke-width="1.51"/><path d="M154,149L243,265L299,136Z" fill="#282826" stroke="#282826" stroke-width="1.51"/><path d="M1852,236L1872,157L1687,188Z" fill="#30312f" stroke="#30312f" stroke-width="1.51"/><path d="M1949,124L1872,157L1961,258Z" fill="#383936" stroke="#383936" stroke-width="1.51"/><path d="M326,530L355,648L510,593Z" fill="#262625" stroke="#262625" stroke-width="1.51"/><path d="M153,656L355,648L326,530Z" fill="#272626" stroke="#272626" stroke-width="1.51"/><path d="M355,648L381,696L426,700Z" fill="#30302f" stroke="#30302f" stroke-width="1.51"/><path d="M426,700L176,765L691,743Z" fill="#373835" stroke="#373835" stroke-width="1.51"/><path d="M1809,435L1863,403L1689,320Z" fill="#242423" stroke="#242423" stroke-width="1.51"/><path d="M1873,560L1863,403L1809,435Z" fill="#212221" stroke="#212221" stroke-width="1.51"/><path d="M1873,560L1745,465L1688,618Z" fill="#262726" stroke="#262726" stroke-width="1.51"/><path d="M213,313L247,458L325,385Z" fill="#1d1c1b" stroke="#1d1c1b" stroke-width="1.51"/><path d="M355,648L176,765L381,696Z" fill="#313130" stroke="#313130" stroke-width="1.51"/><path d="M243,265L213,313L325,385Z" fill="#20201e" stroke="#20201e" stroke-width="1.51"/><path d="M109,256L213,313L243,265Z" fill="#222120" stroke="#222120" stroke-width="1.51"/><path d="M302,24L203,7L299,136Z" fill="#292927" stroke="#292927" stroke-width="1.51"/><path d="M241,-127L203,7L302,24Z" fill="#262523" stroke="#262523" stroke-width="1.51"/><path d="M241,-127L302,24L351,-104Z" fill="#252523" stroke="#252523" stroke-width="1.51"/><path d="M438,-195L241,-127L351,-104Z" fill="#232221" stroke="#232221" stroke-width="1.51"/><path d="M109,256L154,149L103,148Z" fill="#262624" stroke="#262624" stroke-width="1.51"/><path d="M203,7L154,149L299,136Z" fill="#2a2a27" stroke="#2a2a27" stroke-width="1.51"/><path d="M213,313L87,384L247,458Z" fill="#1b1b1a" stroke="#1b1b1a" stroke-width="1.51"/><path d="M1961,258L1872,157L1852,236Z" fill="#343433" stroke="#343433" stroke-width="1.51"/><path d="M1767,790L1873,560L1688,618Z" fill="#323332" stroke="#323332" stroke-width="1.51"/><path d="M1872,157L1949,124L1801,12Z" fill="#363735" stroke="#363735" stroke-width="1.51"/><path d="M1801,12L1884,-166L1746,-39Z" fill="#2d2d2c" stroke="#2d2d2c" stroke-width="1.51"/><path d="M1961,258L1852,236L1952,343Z" fill="#303130" stroke="#303130" stroke-width="1.51"/><path d="M1937,-54L1884,-166L1801,12Z" fill="#30302f" stroke="#30302f" stroke-width="1.51"/><path d="M1741,-110L1884,-166L1577,-128Z" fill="#272726" stroke="#272726" stroke-width="1.51"/><path d="M1186,-186L1884,-166L1003,-195Z" fill="#141313" stroke="#141313" stroke-width="1.51"/><path d="M1952,343L1852,236L1863,403Z" fill="#2c2d2b" stroke="#2c2d2b" stroke-width="1.51"/><path d="M1948,535L1952,343L1863,403Z" fill="#272827" stroke="#272827" stroke-width="1.51"/><path d="M2052,-39L1937,-54L1949,124Z" fill="#393937" stroke="#393937" stroke-width="1.51"/><path d="M1949,124L1937,-54L1801,12Z" fill="#353534" stroke="#353534" stroke-width="1.51"/><path d="M1383,785L1767,790L1584,770Z" fill="#363736" stroke="#363736" stroke-width="1.51"/><path d="M1584,770L1767,790L1688,618Z" fill="#353635" stroke="#353635" stroke-width="1.51"/><path d="M1937,-54L1920,-163L1884,-166Z" fill="#2f302e" stroke="#2f302e" stroke-width="1.51"/><path d="M103,148L154,149L203,7Z" fill="#292827" stroke="#292827" stroke-width="1.51"/><path d="M154,149L109,256L243,265Z" fill="#252523" stroke="#252523" stroke-width="1.51"/><path d="M247,458L153,656L326,530Z" fill="#1f1f1e" stroke="#1f1f1e" stroke-width="1.51"/><path d="M80,-32L103,148L203,7Z" fill="#272624" stroke="#272624" stroke-width="1.51"/><path d="M1944,560L1948,535L1873,560Z" fill="#2d2f2d" stroke="#2d2f2d" stroke-width="1.51"/><path d="M1873,560L1948,535L1863,403Z" fill="#272727" stroke="#272727" stroke-width="1.51"/><path d="M2119,255L1949,124L1961,258Z" fill="#3a3a38" stroke="#3a3a38" stroke-width="1.51"/><path d="M1972,754L1944,560L1873,560Z" fill="#363736" stroke="#363736" stroke-width="1.51"/><path d="M109,256L87,384L213,313Z" fill="#1f1e1c" stroke="#1f1e1c" stroke-width="1.51"/><path d="M6,449L87,384L-84,331Z" fill="#181717" stroke="#181717" stroke-width="1.51"/><path d="M6,449L42,514L87,384Z" fill="#151514" stroke="#151514" stroke-width="1.51"/><path d="M241,-127L80,-32L203,7Z" fill="#242322" stroke="#242322" stroke-width="1.51"/><path d="M42,514L153,656L247,458Z" fill="#1d1d1c" stroke="#1d1d1c" stroke-width="1.51"/><path d="M1767,790L1883,792L1873,560Z" fill="#3b3c3b" stroke="#3b3c3b" stroke-width="1.51"/><path d="M1383,785L1883,792L1767,790Z" fill="#3c3d3c" stroke="#3c3d3c" stroke-width="1.51"/><path d="M1937,-54L2052,-39L1920,-163Z" fill="#343433" stroke="#343433" stroke-width="1.51"/><path d="M2120,104L2052,-39L1949,124Z" fill="#3e3e3c" stroke="#3e3e3c" stroke-width="1.51"/><path d="M2119,255L1961,258L1952,343Z" fill="#353634" stroke="#353634" stroke-width="1.51"/><path d="M2119,255L1952,343L2135,390Z" fill="#333432" stroke="#333432" stroke-width="1.51"/><path d="M241,-127L82,-165L80,-32Z" fill="#21201f" stroke="#21201f" stroke-width="1.51"/><path d="M438,-195L82,-165L241,-127Z" fill="#21201f" stroke="#21201f" stroke-width="1.51"/><path d="M153,656L176,765L355,648Z" fill="#2e2e2d" stroke="#2e2e2d" stroke-width="1.51"/><path d="M381,696L176,765L426,700Z" fill="#333432" stroke="#333432" stroke-width="1.51"/><path d="M691,743L176,765L1383,785Z" fill="#353634" stroke="#353634" stroke-width="1.51"/><path d="M68,706L176,765L153,656Z" fill="#2f2f2d" stroke="#2f2f2d" stroke-width="1.51"/><path d="M87,384L42,514L247,458Z" fill="#171615" stroke="#171615" stroke-width="1.51"/><path d="M-63,158L109,256L103,148Z" fill="#252523" stroke="#252523" stroke-width="1.51"/><path d="M3,-13L103,148L80,-32Z" fill="#252423" stroke="#252423" stroke-width="1.51"/><path d="M82,-165L3,-13L80,-32Z" fill="#22201f" stroke="#22201f" stroke-width="1.51"/><path d="M2135,390L1952,343L1948,535Z" fill="#2c2d2c" stroke="#2c2d2c" stroke-width="1.51"/><path d="M2135,390L1948,535L2135,536Z" fill="#2c2d2c" stroke="#2c2d2c" stroke-width="1.51"/><path d="M2119,255L2120,104L1949,124Z" fill="#3e3f3d" stroke="#3e3f3d" stroke-width="1.51"/><path d="M42,514L50,587L153,656Z" fill="#21211f" stroke="#21211f" stroke-width="1.51"/><path d="M42,514L1,584L50,587Z" fill="#1d1d1c" stroke="#1d1d1c" stroke-width="1.51"/><path d="M-84,331L87,384L109,256Z" fill="#1d1c1b" stroke="#1d1c1b" stroke-width="1.51"/><path d="M1883,792L1972,754L1873,560Z" fill="#3d3f3d" stroke="#3d3f3d" stroke-width="1.51"/><path d="M2119,255L2135,390L2120,104Z" fill="#383937" stroke="#383937" stroke-width="1.51"/><path d="M2135,536L1948,535L1944,560Z" fill="#313231" stroke="#313231" stroke-width="1.51"/><path d="M2052,-39L2109,-119L1920,-163Z" fill="#363735" stroke="#363735" stroke-width="1.51"/><path d="M2120,104L2109,-119L2052,-39Z" fill="#3a3b39" stroke="#3a3b39" stroke-width="1.51"/><path d="M2135,390L2109,-119L2120,104Z" fill="#40413e" stroke="#40413e" stroke-width="1.51"/><path d="M-13,709L68,706L50,587Z" fill="#292827" stroke="#292827" stroke-width="1.51"/><path d="M50,587L68,706L153,656Z" fill="#272726" stroke="#272726" stroke-width="1.51"/><path d="M3,-13L-63,158L103,148Z" fill="#272624" stroke="#272624" stroke-width="1.51"/><path d="M6,449L1,584L42,514Z" fill="#181817" stroke="#181817" stroke-width="1.51"/><path d="M-152,569L1,584L6,449Z" fill="#1a1919" stroke="#1a1919" stroke-width="1.51"/><path d="M2145,606L2135,536L1944,560Z" fill="#353635" stroke="#353635" stroke-width="1.51"/><path d="M-94,201L-84,331L109,256Z" fill="#201e1d" stroke="#201e1d" stroke-width="1.51"/><path d="M-165,109L-94,201L-63,158Z" fill="#252422" stroke="#252422" stroke-width="1.51"/><path d="M-63,158L-94,201L109,256Z" fill="#232321" stroke="#232321" stroke-width="1.51"/><path d="M1972,754L2102,688L1944,560Z" fill="#3f403f" stroke="#3f403f" stroke-width="1.51"/><path d="M2102,688L2145,606L1944,560Z" fill="#3a3c3a" stroke="#3a3c3a" stroke-width="1.51"/><path d="M2135,536L2145,606L2135,390Z" fill="#2f2f2f" stroke="#2f2f2f" stroke-width="1.51"/><path d="M3,-13L-165,109L-63,158Z" fill="#252422" stroke="#252422" stroke-width="1.51"/><path d="M82,-165L-82,-120L3,-13Z" fill="#1f1e1d" stroke="#1f1e1d" stroke-width="1.51"/><path d="M68,706L-13,709L176,765Z" fill="#30302f" stroke="#30302f" stroke-width="1.51"/><path d="M1,584L-13,709L50,587Z" fill="#242423" stroke="#242423" stroke-width="1.51"/><path d="M-152,569L-13,709L1,584Z" fill="#222121" stroke="#222121" stroke-width="1.51"/><path d="M-84,331L-189,451L6,449Z" fill="#161514" stroke="#161514" stroke-width="1.51"/><path d="M-94,201L-152,344L-84,331Z" fill="#1d1b1b" stroke="#1d1b1b" stroke-width="1.51"/><path d="M-198,221L-152,344L-94,201Z" fill="#1e1d1c" stroke="#1e1d1c" stroke-width="1.51"/><path d="M-156,-17L-165,109L3,-13Z" fill="#222120" stroke="#222120" stroke-width="1.51"/><path d="M-82,-120L-156,-17L3,-13Z" fill="#201e1e" stroke="#201e1e" stroke-width="1.51"/><path d="M-156,-17L-198,221L-165,109Z" fill="#242322" stroke="#242322" stroke-width="1.51"/><path d="M-165,109L-198,221L-94,201Z" fill="#232221" stroke="#232221" stroke-width="1.51"/><path d="M-189,451L-84,331L-152,344Z" fill="#171615" stroke="#171615" stroke-width="1.51"/><path d="M-189,451L-152,569L6,449Z" fill="#141313" stroke="#141313" stroke-width="1.51"/><path d="M-198,221L-189,451L-152,344Z" fill="#191817" stroke="#191817" stroke-width="1.51"/><path d="M-156,-17L-168,-167L-198,221Z" fill="#211f1e" stroke="#211f1e" stroke-width="1.51"/><path d="M-82,-120L-168,-167L-156,-17Z" fill="#1d1b1b" stroke="#1d1b1b" stroke-width="1.51"/><path d="M82,-165L-168,-167L-82,-120Z" fill="#1d1b1a" stroke="#1d1b1a" stroke-width="1.51"/><path d="M438,-195L-168,-167L82,-165Z" fill="#1e1d1c" stroke="#1e1d1c" stroke-width="1.51"/><path d="M-13,709L-173,785L176,765Z" fill="#313130" stroke="#313130" stroke-width="1.51"/><path d="M176,765L-173,785L1383,785Z" fill="#3c3d3b" stroke="#3c3d3b" stroke-width="1.51"/><path d="M1383,785L-173,785L1883,792Z" fill="#2f302f" stroke="#2f302f" stroke-width="1.51"/><path d="M-152,569L-173,785L-13,709Z" fill="#282827" stroke="#282827" stroke-width="1.51"/><path d="M-189,451L-173,785L-152,569Z" fill="#1e1d1d" stroke="#1e1d1d" stroke-width="1.51"/></svg>